# xmcd
#
# Track frame offsets:
#	150
#	15480
#	30851
#	43477
#	62131
#	82873
#
# Disc length: 1357 seconds
# Revision: 0
# Processed by: cddbd v1.5.2PL0 Copyright (c) Steve Scherf et al.
# Submitted via: dBpowerAMP V12.0
#
DISCID=3d054b06
DTITLE=Three Tall Pines - Taproot
DYEAR=2014
DGENRE=Bluegrass
TTITLE0=With Body and Soul
TTITLE1=Raleigh and Spencer
TTITLE2=Crying Holy
TTITLE3=Walls of Time
TTITLE4=Stonewalls
TTITLE5=Angel Band
EXTD=
EXTT0=
EXTT1=
EXTT2=
EXTT3=
EXTT4=
EXTT5=
PLAYORDER=
